# xmcd
#
# Track frame offsets:
#	150
#	10927
#	22422
#	37002
#	49002
#	61130
#	69807
#	83247
#	94000
#	106182
#	117992
#	129385
#	142020
#	153262
#	164952
#	176295
#	184472
#	199377
#	211722
#	224227
#	232632
#	243355
#	256180
#	267917
#	280475
#	292107
#	301942
#	310702
#	321767
#	331065
#	340555
#	349322
#
# Disc length: 4789 seconds
#
# Revision: 5
# Processed by: cddbd v1.4PL0 Copyright (c) Steve Scherf et al.
# Submitted via: MusicWizard 6.0.0
#
DISCID=db12b320
DTITLE=Johnny Cash - The Man In Black, 1963-1969 CD 3/6
DYEAR=1995
DGENRE=Country
TTITLE0=The Frozen Logger
TTITLE1=The Baby Is Mine
TTITLE2=Happy To Be With You
TTITLE3=For Lovin' Me
TTITLE4=Wabash Cannonball
TTITLE5=Guess Things Happen That Way
TTITLE6=Happiness Is You
TTITLE7=Ancient History
TTITLE8=You Comb Her Hair
TTITLE9=A Wound Time Can't Erase
TTITLE10=Is This My Destiny
TTITLE11=Jackson
TTITLE12=Pack Up Your Sorrows
TTITLE13=The Long Legged Guitar Pickin' Man
TTITLE14=Fast Boat To Sidney
TTITLE15=You'll Be Alright
TTITLE16=I Got A Woman
TTITLE17=What'd I Say (1995)
TTITLE18=Oh, What A Good Thing We Had
TTITLE19=No, No, No
TTITLE20=Shanty Town
TTITLE21=What'd I Say
TTITLE22=Still In Town
TTITLE23=The Matador (Original)
TTITLE24=Wer Kennt Den Weg (Without Vocal Chorus)
TTITLE25=In Virginia (Without Vocal Chorus)
TTITLE26=Kleine Rosmarie (Without Vocal Chorus)
TTITLE27=Besser So, Jenny -Jo (Without Vocal Chorus)
TTITLE28=Wer Kennt Den Weg
TTITLE29=In Virginia
TTITLE30=Kleine Rosmarie
TTITLE31=Besser So, Jenny -Jo
EXTD=(c)1995 Bear Family Germany\nOriginal Columbia Records
EXTT0=
EXTT1=
EXTT2=
EXTT3=
EXTT4=
EXTT5=
EXTT6=
EXTT7=
EXTT8=
EXTT9=
EXTT10=
EXTT11=
EXTT12=
EXTT13=
EXTT14=
EXTT15=
EXTT16=
EXTT17=
EXTT18=
EXTT19=
EXTT20=
EXTT21=
EXTT22=
EXTT23=
EXTT24=
EXTT25=
EXTT26=
EXTT27=
EXTT28=
EXTT29=
EXTT30=
EXTT31=
PLAYORDER=
